# xmcd
# 
# Track frame offsets:
#     150
#     17563
#     33997
#     50593
#     66108
#     82939
#     98708
#     110753
#     126620
#     141483
# 
# Disc length: 2548
# 
# Revision: 1
# Processed by: cddbd v1.5.2PL0 Copyright (c) Steve Scherf et al.
# Submitted via: fre:ac v1.0.31
# 
DISCID=8b09f20a
DTITLE=Deer Tick - Born on Flag Day
DYEAR=0
DGENRE=Country
TTITLE0=Easy
TTITLE1=Little White Lies
TTITLE2=Smith Hill
TTITLE3=Song About a Man
TTITLE4=Houston, TX
TTITLE5=Straight Into a Storm
TTITLE6=Friday XIII
TTITLE7=The Ghost
TTITLE8=Hell on Earth
TTITLE9=Stung
EXTD=
EXTT0=
EXTT1=
EXTT2=
EXTT3=
EXTT4=
EXTT5=
EXTT6=
EXTT7=
EXTT8=
EXTT9=
PLAYORDER=
